<?xml version="1.0" encoding="utf-8"?>
<!-- Svg Vector Icons : http://www.onlinewebfonts.com/icon -->
<!DOCTYPE svg PUBLIC "-//W3C//DTD SVG 1.1//EN" "http://www.w3.org/Graphics/SVG/1.1/DTD/svg11.dtd">
<svg version="1.1" xmlns="http://www.w3.org/2000/svg" xmlns:xlink="http://www.w3.org/1999/xlink" x="0px" y="0px" viewBox="0 0 1000 1000" enable-background="new 0 0 1000 1000" xml:space="preserve">
<metadata> Svg Vector Icons : http://www.onlinewebfonts.com/icon </metadata>
<g><g transform="translate(0.000000,511.000000) scale(0.100000,-0.100000)"><path d="M2940.2,2861c-847.7-87.1-1578.5-435.7-2131.1-1014.1c-479.3-501.1-709-1061.6-709-1737c0-679.3,229.8-1237.9,719-1746.9c489.2-511,1089.3-822,1863.7-970.5c221.8-41.6,275.3-41.6,2148.9-49.5c2000.4-7.9,2194.5-4,2598.5,75.3c932.9,180.2,1794.4,784.3,2190.5,1538.9c200.1,382.2,279.3,715,279.3,1162.6c-2,720.9-265.4,1309.2-827.9,1845.9c-536.7,513-1245.8,821.9-2061.8,897.2C6742.9,2886.7,3181.8,2884.7,2940.2,2861z M7154.9,2536.1c673.4-95.1,1271.6-376.3,1715.2-802.1c328.8-316.9,548.6-675.4,659.5-1079.4c49.5-182.2,55.5-227.8,55.5-544.7c0-316.9-6-362.4-55.5-542.7c-112.9-404-301-720.9-625.9-1043.8C8442.2-1936,7856-2217.3,7154.9-2316.3c-301-43.6-4008.7-43.6-4309.8,0c-673.4,95.1-1271.5,376.3-1715.2,802.1C801.1-1197.3,581.3-838.8,470.4-434.7c-49.5,182.2-55.5,227.8-55.5,544.6c0,316.9,5.9,362.4,55.5,544.7c269.4,970.5,1196.3,1711.2,2358.9,1881.6C3106.5,2575.8,6869.7,2575.8,7154.9,2536.1z"/><path d="M3027.3,1908.3c-23.8-9.9-53.5-41.6-65.4-67.3c-31.7-69.3-31.7-3392.8,0-3460.1c11.9-27.7,43.6-59.4,71.3-71.3c67.3-31.7,3866.1-31.7,3933.4,0c27.7,11.9,59.4,43.6,71.3,71.3c31.7,67.3,31.7,3390.8,0,3458.1c-11.9,27.7-43.6,59.4-71.3,71.3C6901.4,1940,3088.7,1938,3027.3,1908.3z M6742.9,585.3V-444.6H5000H3257.1V585.3v1029.9H5000h1742.9V585.3z M6742.9-1078.4v-316.9H5000H3257.1v316.9v316.9H5000h1742.9V-1078.4z"/><path d="M1601.3,1670.6c-73.3-33.7-87.1-101-87.1-402.1V981.4H1227c-170.3,0-305-9.9-334.7-21.8c-108.9-51.5-108.9-221.8,0-273.3c29.7-11.9,164.4-21.8,334.7-21.8h287.2V377.3c0-170.3,9.9-305,21.8-334.7c31.7-69.3,120.8-103,194.1-73.3c87.1,37.6,101,93.1,101,408v287.2h287.2c170.3,0,305,9.9,334.7,21.8c108.9,51.5,108.9,221.8,0,273.3c-29.7,11.9-164.4,21.8-334.7,21.8H1831v287.2c0,305-13.9,368.4-93.1,404C1680.5,1698.4,1656.7,1698.4,1601.3,1670.6z"/><path d="M8313.5,1670.6c-108.9-53.5-99-225.8,15.9-273.3c176.3-73.3,299.1,196.1,124.8,275.3C8394.7,1698.4,8371,1698.4,8313.5,1670.6z"/><path d="M7838.2,1195.3c-108.9-53.5-99-225.8,15.9-273.3c176.3-73.3,299.1,196.1,124.8,275.3C7919.4,1223,7895.6,1223,7838.2,1195.3z"/><path d="M8788.9,1195.3c-108.9-53.5-99-225.8,15.9-273.3c176.3-73.3,299.1,196.1,124.8,275.3C8870.1,1223,8846.3,1223,8788.9,1195.3z"/><path d="M8313.5,719.9c-108.9-53.5-99-225.8,15.9-273.3c176.3-73.3,299.1,196.1,124.8,275.3C8394.7,747.7,8371,747.7,8313.5,719.9z"/><path d="M1547.8-452.6c-202-55.5-354.5-227.8-382.3-431.8c-27.7-196.1,93.1-419.9,277.3-516.9c114.9-59.4,344.6-59.4,459.5,0c184.2,97,305,320.8,277.3,516.9c-15.8,112.9-103,273.3-180.2,332.7C1864.7-448.6,1696.4-413,1547.8-452.6z M1769.6-769.5c112.9-59.4,134.7-217.9,43.6-311c-164.4-164.4-423.8,33.7-311,237.7C1553.8-749.7,1668.6-718,1769.6-769.5z"/><path d="M8065.9-452.6c-186.1-49.5-316.9-182.2-364.4-370.4c-105-404,318.9-760.5,695.2-584.3c128.7,59.4,202,134.7,263.4,267.4c108.9,235.7,4,524.9-231.7,643.7C8309.6-436.7,8182.8-420.9,8065.9-452.6z M8287.8-771.4c116.9-61.4,136.7-211.9,41.6-309c-97.1-95.1-247.6-75.3-309,41.6c-47.5,91.1-37.6,154.5,37.6,229.7C8133.3-733.8,8196.7-723.9,8287.8-771.4z"/></g></g>
</svg>